# xmcd
#
# Track frame offsets:
#	150
#	1337
#	26579
#	44972
#	67538
#	94305
#	115800
#	133128
#	148609
#	170770
#	189913
#	212004
#	218517
#	233792
#
# Disc length: 3375 seconds
#
# Revision: 0
# Processed by: cddbd v1.5.2PL0 Copyright (c) Steve Scherf et al.
# Submitted via: EasyCDDAExtractor 2010.6.0.0
#
DISCID=c40d2d0e
DTITLE=Stahlgewitter - Politscher Soldat
DYEAR=1900
DGENRE=
TTITLE0=Begrüzungswurte
TTITLE1=Das Wahre Deutschland
TTITLE2=Pseudodeutscher
TTITLE3=Sommer In Sebnitz
TTITLE4=Die Letzte Opposition
TTITLE5=Politscher Soldat
TTITLE6=Was Immer Auf Erden Besteht
TTITLE7=Sie Fürchten Unser Wort
TTITLE8=Völker Wehrt Euch
TTITLE9=Ruhm Und Ehre II
TTITLE10=Der V-Man
TTITLE11=Achtundachtzig
TTITLE12=Das Eiserne Gebet
TTITLE13=Einen Tag Regierren
EXTD=
EXTT0=
EXTT1=
EXTT2=
EXTT3=
EXTT4=
EXTT5=
EXTT6=
EXTT7=
EXTT8=
EXTT9=
EXTT10=
EXTT11=
EXTT12=
EXTT13=
PLAYORDER=
